<?xml version="1.0" encoding="UTF-8" standalone="no"?>
<!-- Created with Inkscape (http://www.inkscape.org/) -->

<svg
   xmlns:dc="http://purl.org/dc/elements/1.1/"
   xmlns:cc="http://creativecommons.org/ns#"
   xmlns:rdf="http://www.w3.org/1999/02/22-rdf-syntax-ns#"
   xmlns:svg="http://www.w3.org/2000/svg"
   xmlns="http://www.w3.org/2000/svg"
   xmlns:sodipodi="http://sodipodi.sourceforge.net/DTD/sodipodi-0.dtd"
   xmlns:inkscape="http://www.inkscape.org/namespaces/inkscape"
   width="16"
   height="16"
   id="svg2"
   version="1.1"
   inkscape:version="0.91 r13725"
   sodipodi:docname="icon_list_src.svg">
  <defs
     id="defs4" />
  <sodipodi:namedview
     id="base"
     pagecolor="#ffffff"
     bordercolor="#666666"
     borderopacity="1.0"
     inkscape:pageopacity="0.0"
     inkscape:pageshadow="2"
     inkscape:zoom="29.477514"
     inkscape:cx="8.1814512"
     inkscape:cy="8.7676162"
     inkscape:document-units="px"
     inkscape:current-layer="layer1"
     showgrid="true"
     inkscape:snap-grids="true"
     inkscape:snap-global="true"
     inkscape:window-width="1496"
     inkscape:window-height="1016"
     inkscape:window-x="305"
     inkscape:window-y="27"
     inkscape:window-maximized="0">
    <inkscape:grid
       type="xygrid"
       id="grid2985"
       empspacing="4"
       visible="true"
       enabled="true"
       snapvisiblegridlinesonly="true" />
  </sodipodi:namedview>
  <metadata
     id="metadata7">
    <rdf:RDF>
      <cc:Work
         rdf:about="">
        <dc:format>image/svg+xml</dc:format>
        <dc:type
           rdf:resource="http://purl.org/dc/dcmitype/StillImage" />
        <dc:title></dc:title>
      </cc:Work>
    </rdf:RDF>
  </metadata>
  <g
     inkscape:label="Calque 1"
     inkscape:groupmode="layer"
     id="layer1"
     transform="translate(0,-1036.3622)">
    <path
       style="opacity:1;fill:#222;fill-opacity:1;stroke:none;stroke-width:3;stroke-linecap:butt;stroke-linejoin:miter;stroke-miterlimit:4;stroke-dasharray:none;stroke-dashoffset:0;stroke-opacity:1"
       d="m 1.482275,1036.346 c -0.82842708,0 -1.49999989,0.6716 -1.49999989,1.5 0,0.8284 0.67157281,1.5 1.49999989,1.5 0.8284271,0 1.5,-0.6716 1.5,-1.5 0,-0.8284 -0.6715729,-1.5 -1.5,-1.5 z m 3.4159524,0.4902 0,2 11.0840486,0 0,-2 z"
       id="path4220"
       inkscape:connector-curvature="0"
       sodipodi:nodetypes="sssssccccc" />
    <path
       inkscape:connector-curvature="0"
       id="path4237"
       d="m 1.5501233,1049.3729 c -0.82842708,0 -1.49999989,0.6716 -1.49999989,1.5 0,0.8284 0.67157281,1.5 1.49999989,1.5 0.8284271,0 1.5,-0.6716 1.5,-1.5 0,-0.8284 -0.6715729,-1.5 -1.5,-1.5 z m 3.4498766,0.4902 0,2 11.0501241,0 0,-2 z"
       style="opacity:1;fill:#222;fill-opacity:1;stroke:none;stroke-width:3;stroke-linecap:butt;stroke-linejoin:miter;stroke-miterlimit:4;stroke-dasharray:none;stroke-dashoffset:0;stroke-opacity:1"
       sodipodi:nodetypes="sssssccccc" />
    <path
       style="opacity:1;fill:#222;fill-opacity:1;stroke:none;stroke-width:3;stroke-linecap:butt;stroke-linejoin:miter;stroke-miterlimit:4;stroke-dasharray:none;stroke-dashoffset:0;stroke-opacity:1"
       d="m 1.4483508,1040.6548 c -0.82842708,0 -1.49999988,0.6716 -1.49999988,1.5 0,0.8284 0.6715728,1.5 1.49999988,1.5 0.8284271,0 1.5339242,-0.6716 1.5339242,-1.5 0,-0.8284 -0.7054971,-1.5 -1.5339242,-1.5 z m 3.5516491,0.4902 0,2 10.9483521,0 0,-2 z"
       id="path4239"
       inkscape:connector-curvature="0"
       sodipodi:nodetypes="sssssccccc" />
    <path
       inkscape:connector-curvature="0"
       id="path4241"
       d="m 1.4483508,1045.0647 c -0.82842708,0 -1.49999988,0.6716 -1.49999988,1.5 0,0.8284 0.6715728,1.5 1.49999988,1.5 0.8284271,0 1.5,-0.6716 1.5,-1.5 0,-0.8284 -0.6715729,-1.5 -1.5,-1.5 z m 3.5516491,0.4902 0,2 10.9483521,0 0,-2 z"
       style="opacity:1;fill:#222;fill-opacity:1;stroke:none;stroke-width:3;stroke-linecap:butt;stroke-linejoin:miter;stroke-miterlimit:4;stroke-dasharray:none;stroke-dashoffset:0;stroke-opacity:1"
       sodipodi:nodetypes="sssssccccc" />
  </g>
</svg>
