<?xml version="1.0" encoding="UTF-8" standalone="no"?>
<!-- Created with Inkscape (http://www.inkscape.org/) -->

<svg
   xmlns:dc="http://purl.org/dc/elements/1.1/"
   xmlns:cc="http://creativecommons.org/ns#"
   xmlns:rdf="http://www.w3.org/1999/02/22-rdf-syntax-ns#"
   xmlns:svg="http://www.w3.org/2000/svg"
   xmlns="http://www.w3.org/2000/svg"
   xmlns:sodipodi="http://sodipodi.sourceforge.net/DTD/sodipodi-0.dtd"
   xmlns:inkscape="http://www.inkscape.org/namespaces/inkscape"
   width="16"
   height="16"
   id="svg2"
   version="1.1"
   inkscape:version="0.48.5 r10040">
  <defs
     id="defs4" />
  <sodipodi:namedview
     id="base"
     pagecolor="#ffffff"
     bordercolor="#666666"
     borderopacity="1.0"
     inkscape:pageopacity="0.0"
     inkscape:pageshadow="2"
     inkscape:zoom="41.6875"
     inkscape:cx="6.8875562"
     inkscape:cy="8.9595202"
     inkscape:document-units="px"
     inkscape:current-layer="layer1"
     showgrid="true"
     inkscape:snap-grids="true"
     inkscape:snap-global="true"
     inkscape:window-width="1496"
     inkscape:window-height="1028"
     inkscape:window-x="230"
     inkscape:window-y="80"
     inkscape:window-maximized="0">
    <inkscape:grid
       type="xygrid"
       id="grid2985"
       empspacing="4"
       visible="true"
       enabled="true"
       snapvisiblegridlinesonly="true" />
  </sodipodi:namedview>
  <metadata
     id="metadata7">
    <rdf:RDF>
      <cc:Work
         rdf:about="">
        <dc:format>image/svg+xml</dc:format>
        <dc:type
           rdf:resource="http://purl.org/dc/dcmitype/StillImage" />
        <dc:title></dc:title>
      </cc:Work>
    </rdf:RDF>
  </metadata>
  <g
     inkscape:label="Calque 1"
     inkscape:groupmode="layer"
     id="layer1"
     transform="translate(0,-1036.3622)">
    <path
       style="fill:#FFF;fill-opacity:1;stroke:none"
       d="M 3 1 L 3 2.375 L 4 2.8125 L 4 2 L 11 2 L 11 6 L 15 6 L 15 15 L 4 15 L 4 10 L 3 10 L 3 16 L 16 16 L 16 5 L 12 1 L 3 1 z M 12 2.34375 L 14.65625 5 L 12 5 L 12 2.34375 z M 0 3 L 1 4 L 0 5 C 2 5 3 5 5 7 L 2.90625 9.21875 L 8.4375 9.3125 L 9.5625 3.625 L 6.78125 5.625 C 4.008224 3.0149 2 3 0 3 z M 3 6.3125 L 3 8 L 4 7 L 3 6.3125 z "
       transform="translate(0,1036.3622)"
       id="path3757" />
  </g>
</svg>
