<?xml version="1.0" encoding="UTF-8" standalone="no"?>
<!-- Created with Inkscape (http://www.inkscape.org/) -->

<svg
   xmlns:dc="http://purl.org/dc/elements/1.1/"
   xmlns:cc="http://creativecommons.org/ns#"
   xmlns:rdf="http://www.w3.org/1999/02/22-rdf-syntax-ns#"
   xmlns:svg="http://www.w3.org/2000/svg"
   xmlns="http://www.w3.org/2000/svg"
   xmlns:sodipodi="http://sodipodi.sourceforge.net/DTD/sodipodi-0.dtd"
   xmlns:inkscape="http://www.inkscape.org/namespaces/inkscape"
   width="16"
   height="16"
   id="svg2"
   version="1.1"
   inkscape:version="0.91 r13725"
   sodipodi:docname="icon_download_src.svg">
  <defs
     id="defs4" />
  <sodipodi:namedview
     id="base"
     pagecolor="#ffffff"
     bordercolor="#666666"
     borderopacity="1.0"
     inkscape:pageopacity="0.0"
     inkscape:pageshadow="2"
     inkscape:zoom="41.6875"
     inkscape:cx="5.4158511"
     inkscape:cy="8"
     inkscape:document-units="px"
     inkscape:current-layer="layer1"
     showgrid="true"
     inkscape:snap-grids="true"
     inkscape:snap-global="true"
     inkscape:window-width="1493"
     inkscape:window-height="1028"
     inkscape:window-x="233"
     inkscape:window-y="80"
     inkscape:window-maximized="0">
    <inkscape:grid
       type="xygrid"
       id="grid2985"
       empspacing="4"
       visible="true"
       enabled="true"
       snapvisiblegridlinesonly="true" />
  </sodipodi:namedview>
  <metadata
     id="metadata7">
    <rdf:RDF>
      <cc:Work
         rdf:about="">
        <dc:format>image/svg+xml</dc:format>
        <dc:type
           rdf:resource="http://purl.org/dc/dcmitype/StillImage" />
        <dc:title></dc:title>
      </cc:Work>
    </rdf:RDF>
  </metadata>
  <g
     inkscape:label="Calque 1"
     inkscape:groupmode="layer"
     id="layer1"
     transform="translate(0,-1036.3622)">
    <path
       style="fill:#000;fill-opacity:1;stroke:none"
       d="M 3 1 L 3 6.7734375 L 3 6.8730469 L 4 6.8730469 L 4 6.7734375 L 4 2 L 11 2 L 11 6 L 15 6 L 15 15 L 4 15 L 4 14.873047 L 4 14.773438 L 4 14.060547 L 3 14.498047 L 3 14.773438 L 3 14.873047 L 3 16 L 16 16 L 16 5 L 12 1 L 3 1 z M 12 2.34375 L 14.65625 5 L 12 5 L 12 2.34375 z M 8.4375 7.5605469 L 2.90625 7.6542969 L 5 9.8730469 C 3 11.873047 2 11.873047 0 11.873047 L 1 12.873047 L 0 13.873047 C 2 13.873047 4.008224 13.858347 6.78125 11.248047 L 9.5625 13.248047 L 8.4375 7.5605469 z M 3 8.8730469 L 3 10.560547 L 4 9.8730469 L 3 8.8730469 z "
       transform="translate(0,1036.3622)"
       id="path3353" />
  </g>
</svg>
