<?xml version="1.0" encoding="UTF-8" standalone="no"?>
<!-- Created with Inkscape (http://www.inkscape.org/) -->

<svg
   xmlns:dc="http://purl.org/dc/elements/1.1/"
   xmlns:cc="http://creativecommons.org/ns#"
   xmlns:rdf="http://www.w3.org/1999/02/22-rdf-syntax-ns#"
   xmlns:svg="http://www.w3.org/2000/svg"
   xmlns="http://www.w3.org/2000/svg"
   xmlns:sodipodi="http://sodipodi.sourceforge.net/DTD/sodipodi-0.dtd"
   xmlns:inkscape="http://www.inkscape.org/namespaces/inkscape"
   width="16"
   height="16"
   id="svg2"
   version="1.1"
   inkscape:version="0.48.5 r10040">
  <defs
     id="defs4" />
  <sodipodi:namedview
     id="base"
     pagecolor="#ffffff"
     bordercolor="#666666"
     borderopacity="1.0"
     inkscape:pageopacity="0.0"
     inkscape:pageshadow="2"
     inkscape:zoom="25.5625"
     inkscape:cx="8.4130743"
     inkscape:cy="9.0526138"
     inkscape:document-units="px"
     inkscape:current-layer="layer1"
     showgrid="true"
     inkscape:snap-grids="true"
     inkscape:snap-global="false"
     inkscape:window-width="1496"
     inkscape:window-height="1028"
     inkscape:window-x="230"
     inkscape:window-y="80"
     inkscape:window-maximized="0">
    <inkscape:grid
       type="xygrid"
       id="grid2985"
       empspacing="4"
       visible="true"
       enabled="true"
       snapvisiblegridlinesonly="true" />
  </sodipodi:namedview>
  <metadata
     id="metadata7">
    <rdf:RDF>
      <cc:Work
         rdf:about="">
        <dc:format>image/svg+xml</dc:format>
        <dc:type
           rdf:resource="http://purl.org/dc/dcmitype/StillImage" />
        <dc:title></dc:title>
      </cc:Work>
    </rdf:RDF>
  </metadata>
  <g
     inkscape:label="Calque 1"
     inkscape:groupmode="layer"
     id="layer1"
     transform="translate(0,-1036.3622)">
    <g
       transform="matrix(0.89464975,-0.71706211,0.54547016,0.68056133,816.80281,383.64558)"
       style="font-size:136.50537109px;font-style:normal;font-weight:normal;line-height:125%;letter-spacing:0px;word-spacing:0px;fill:#222;fill-opacity:1;stroke:none;font-family:Sans"
       id="text3997">
      <path
         d="m -909.46691,7.9927509 1.88377,-0.081903 c 0.43682,0.4777683 0.31396,2.5185491 0.21841,2.6550551 l -0.25936,0 c -0.0546,-0.409516 -0.62793,-1.2168596 -1.43331,-1.2168596 l -1.05109,0 c 0,0.1638063 -0.0327,3.7317346 0.008,5.6291566 0,0.24571 0.0546,0.436818 0.0819,0.600624 l -1.4879,0 0,-0.218409 c 0.0273,-3.549135 -0.0352,-4.973931 -0.0352,-4.973931 0,-0.395865 -0.0136,-0.7917312 -0.0546,-1.0374406 l -1.05109,0 c -0.80538,0 -1.3787,0.8073436 -1.4333,1.2168596 l -0.25936,0 c -0.0956,-0.136506 -0.21841,-2.1772868 0.2184,-2.6550551 l 1.88378,0.081903 2.77106,0"
         style="font-size:13.65053558px;font-variant:normal;font-weight:500;font-stretch:normal;font-family:Fontin;-inkscape-font-specification:Fontin Medium"
         id="path4002"
         inkscape:connector-curvature="0"
         sodipodi:nodetypes="ccccscccccccsccccc" />
    </g>
    <path
       style="font-size:medium;font-style:normal;font-variant:normal;font-weight:normal;font-stretch:normal;text-indent:0;text-align:start;text-decoration:none;line-height:normal;letter-spacing:normal;word-spacing:normal;text-transform:none;direction:ltr;block-progression:tb;writing-mode:lr-tb;text-anchor:start;baseline-shift:baseline;color:#222;fill:#222;fill-opacity:1;stroke:none;stroke-width:0.94013619;marker:none;visibility:visible;display:inline;overflow:visible;enable-background:accumulate;font-family:Sans;-inkscape-font-specification:Sans"
       d="m 0.30231101,1042.2228 c 0,0 -0.19086124,0.7465 -0.24263049,1.2615 -0.0015607,0.014 -0.0052,0.018 -0.0078155,0.031 -0.07125055,0.5372 0.006612,1.2963 0.006612,1.2963 l 0.0029874,0.2274 0.16476341,0.1091 c 0,0 0.18358769,0.1584 0.52444756,0.3355 0.28517252,0.1482 0.78237832,0.3386 1.34744542,0.525 0.012647,0.046 0.014494,0.092 0.027307,0.1368 -0.3841378,0.4685 -0.7076629,0.9078 -0.8706454,1.1894 -0.1921674,0.3327 -0.2452641,0.5488 -0.2452641,0.5488 l -0.0868316,0.2032 0.11830563,0.1614 c 0,0 0.3649041,0.6851 0.7077898,1.0969 0.011606,0.014 0.010622,0.025 0.0215,0.038 0.3271812,0.4246 0.9155593,0.9264 0.9155593,0.9264 l 0.1567448,0.1393 0.1971645,-0.012 c 0,0 0.2309097,-0.051 0.5942971,-0.1635 0.297211,-0.092 0.7754397,-0.3089 1.2837242,-0.5603 0.05962,0.039 0.1276223,0.076 0.1950291,0.1173 0.1396144,1.1939 0.4417042,1.9638 0.4417042,1.9638 l 0.071956,0.2136 0.2111128,0.057 c 0,0 0.7351484,0.1988 1.2616035,0.2429 0.012672,0 0.017762,0.01 0.02994,0.01 0.5371153,0.072 1.3265141,0 1.3265141,0 l 0.1972732,-0.012 0.1396701,-0.1564 c 0,0 0.1351704,-0.2015 0.3054071,-0.5327 0.1414114,-0.2748 0.3277075,-0.7486 0.508655,-1.287 0.065944,-0.021 0.1211957,-0.058 0.1833872,-0.08 0.4602771,0.3747 0.8889871,0.673 1.1674181,0.8325 0.330136,0.189 0.570859,0.2832 0.570968,0.2833 l 0.18091,0.049 0.183433,-0.08 c 0,0 0.654831,-0.3732 1.066728,-0.7159 l 0.02994,0.01 c 0.0096,-0.01 -0.0037,-0.025 0.0078,-0.031 0.427722,-0.3252 0.926392,-0.9155 0.926392,-0.9155 l 0.139671,-0.1564 -0.01105,-0.1971 c 0,0 -0.0094,-0.2497 -0.125179,-0.6164 -0.09633,-0.3056 -0.316861,-0.7927 -0.582411,-1.3221 0.03246,-0.054 0.04766,-0.1149 0.0787,-0.173 0.59446,-0.06 1.132644,-0.1112 1.443766,-0.1935 0.370745,-0.098 0.572221,-0.2018 0.572221,-0.2018 l 0.191873,-0.1098 0.05689,-0.2113 c 0,0 0.190862,-0.7465 0.242632,-1.2615 0.0016,-0.014 0.0049,-0.018 0.0084,-0.03 0.06975,-0.5354 0.02348,-1.2883 0.02348,-1.2883 l -0.0029,-0.2273 -0.164766,-0.1091 c 0,0 -0.183647,-0.1584 -0.52451,-0.3356 -0.297416,-0.1545 -0.804602,-0.3465 -1.407634,-0.5411 -0.007,-0.028 -0.0366,-0.047 -0.04471,-0.077 0.415362,-0.4993 0.746539,-0.9467 0.917212,-1.2416 0.192168,-0.3327 0.245264,-0.5489 0.245264,-0.5489 l 0.08683,-0.2031 -0.118318,-0.1614 c 0,0 -0.364857,-0.6851 -0.707681,-1.0969 -0.011,-0.014 -0.01116,-0.024 -0.02153,-0.038 l -0.05206,-0.047 -0.08246,-0.054 c -0.327472,-0.3775 -0.780888,-0.8254 -0.780888,-0.8254 l -0.126477,-0.1311 -0.22743,0 c 0,0 -0.227754,0.048 -0.594297,0.1636 -0.333114,0.1049 -0.830296,0.3077 -1.428827,0.6182 -0.0092,0.01 -0.02038,-0.013 -0.02994,-0.01 -0.0592,-0.6825 -0.169584,-1.2181 -0.259586,-1.5587 -0.0979,-0.3707 -0.193713,-0.6024 -0.193713,-0.6024 l -0.08002,-0.1834 -0.211175,-0.057 c 0,0 -0.7350977,-0.1987 -1.2615415,-0.2428 -0.012649,-0 -0.017801,-0.01 -0.029943,-0.01 -0.5375548,-0.072 -1.3265144,-0 -1.3265144,-0 l -0.1974443,0.012 -0.13967,0.1564 c 0,0 -0.1280568,0.1919 -0.3054069,0.5326 -0.1610845,0.3096 -0.3546037,0.8257 -0.5573109,1.4681 -5.161e-4,0 -0.029622,-0.01 -0.029943,-0.01 -0.5123796,-0.429 -0.9714847,-0.7515 -1.2718838,-0.9254 -0.3325525,-0.1925 -0.5408112,-0.2752 -0.5408112,-0.2752 l -0.2111753,-0.057 -0.1834335,0.08 c 0,0 -0.654822,0.373 -1.0667278,0.7158 -0.014123,0.01 -0.026795,0.01 -0.040252,0.019 -0.425131,0.3269 -0.9263466,0.9154 -0.9263466,0.9154 l -0.1396702,0.1565 0.012077,0.1974 c 0,0 0.00931,0.2497 0.1251173,0.6163 0.1050492,0.3335 0.3372647,0.8374 0.6484829,1.437 2.51e-5,0.013 -0.00539,0.021 -0.00844,0.03 -0.00199,0 -0.029476,-0.011 -0.029939,-0.01 -0.6648281,0.06 -1.21586,0.1409 -1.5506932,0.2294 -0.3708083,0.098 -0.572175,0.2018 -0.57222125,0.2018 l -0.19182678,0.1098 -0.0568919,0.2113 z m 0.87846559,0.4632 c 0.06322,-0.022 0.036573,-0.042 0.1833871,-0.08 0.310892,-0.082 0.8261535,-0.1769 1.5505847,-0.2295 0.062125,-0 0.073852,-0 0.098721,-0.01 l 0.2657608,-0.025 0.1259854,-0.2249 c 0.077847,-0.1544 0.1633992,-0.2948 0.2426942,-0.42 l 0.1330261,-0.2555 -0.132145,-0.2298 c -0.017563,-0.031 -0.023972,-0.053 -0.044711,-0.077 -0.3445649,-0.6387 -0.5216975,-1.1224 -0.6182171,-1.4288 -0.053764,-0.1695 -0.059716,-0.1511 -0.071894,-0.2135 0.164297,-0.1736 0.4732394,-0.4973 0.6555521,-0.6328 l 0.029939,0.01 0.00844,-0.03 c 0.1754941,-0.153 0.5578227,-0.3933 0.7523274,-0.5091 0.05894,0.026 0.044106,0.03 0.1950291,0.1173 0.277945,0.1609 0.6932029,0.4417 1.2416179,0.9172 0.042962,0.037 0.099482,0.054 0.1125307,0.063 l 0.178666,0.1776 0.2820157,-0.086 c 0.096913,-0.033 0.257678,-0.03 0.4411291,-0.075 l 0.2519376,-0.094 0.065019,-0.2414 c 0.012954,-0.047 0.032382,-0.081 0.03251,-0.1207 0.00299,-0.015 0.00431,-0.016 0.00844,-0.03 l -0.029943,-0.01 c 0.00299,-0.015 0.015153,-0.057 0.016255,-0.06 0.00216,-0.014 0.019468,0.047 0.013687,0.069 0.2030123,-0.6729 0.4043685,-1.1586 0.5492925,-1.4379 0.079688,-0.152 0.081742,-0.1409 0.117083,-0.1947 0.230455,-0.01 0.7050423,-0.01 0.9319053,0.024 l 0.029943,0.01 c 0.2402122,0.017 0.6750565,0.1239 0.891377,0.1755 0.022592,0.063 0.0014,0.055 0.041951,0.2055 0.08217,0.3109 0.1849987,0.796 0.237619,1.5205 0.0061,0.071 0.00596,0.09 0.00525,0.098 l 0.017634,0.2961 0.2634543,0.1033 c 0.136996,0.065 0.265425,0.1503 0.420044,0.2427 l 0.255327,0.1335 0.221859,-0.1018 c 0.0774,-0.041 0.155933,-0.1118 0.162419,-0.117 0.570739,-0.2986 1.037811,-0.4928 1.322055,-0.5823 0.153255,-0.048 0.14088,-0.028 0.205697,-0.042 0.165446,0.1569 0.494417,0.4694 0.632315,0.6558 l 0.02994,0.01 0.04472,0.077 c 0.15965,0.2079 0.348173,0.524 0.457118,0.7057 -0.02733,0.06 -0.0067,0.064 -0.08683,0.2032 -0.150932,0.2602 -0.440438,0.6609 -0.862627,1.1593 0.02465,-0.02 -0.04229,0.048 -0.0462,0.052 l -0.23816,0.1622 0.09974,0.3505 c 0.04681,0.1299 0.100179,0.3262 0.1495,0.5258 l 0.06383,0.2438 0.271582,0.073 c 0.01421,0 0.01522,0.01 0.02994,0.01 0.695564,0.207 1.153009,0.4012 1.437792,0.5492 0.152473,0.079 0.14111,0.082 0.195028,0.1173 0.0073,0.2305 0.0086,0.7035 -0.02465,0.932 l 0.02994,0.01 -0.0084,0.03 c -0.01934,0.2408 -0.121502,0.6623 -0.17594,0.8912 -0.06091,0.023 -0.05,0.027 -0.21342,0.072 -0.311,0.082 -0.826153,0.1769 -1.550693,0.2294 l -0.265761,0.025 -0.124898,0.2253 c -0.07348,0.156 -0.156256,0.33 -0.267077,0.5106 l -0.16374,0.2473 0.132254,0.2298 c 0.344563,0.6388 0.521699,1.1225 0.618217,1.4288 0.05376,0.1696 0.05972,0.1511 0.07189,0.2136 -0.164375,0.1736 -0.473522,0.4975 -0.655552,0.6327 l -0.04025,0.019 c -0.17556,0.1531 -0.557783,0.3933 -0.752328,0.5091 -0.05811,-0.025 -0.04542,-0.032 -0.19492,-0.1173 -0.275273,-0.1576 -0.709615,-0.4211 -1.249854,-0.887 l -0.2088694,-0.1857 -0.2519373,0.094 c -0.2136644,0.076 -0.394768,0.1326 -0.5640938,0.1717 l -0.2738883,0.056 -0.073209,0.2716 c -0.2042705,0.6698 -0.3985174,1.1292 -0.5411645,1.4077 -0.076214,0.1492 -0.082554,0.1415 -0.1170835,0.1947 -0.2339853,0.01 -0.6767646,0.017 -0.9017483,-0.016 l -0.029939,-0.01 -0.029939,-0.01 c -0.2236231,-0.016 -0.5859914,-0.1013 -0.830908,-0.1592 -0.043876,-0.099 -0.2196146,-0.4581 -0.3175778,-1.7037 l -0.025761,-0.2659 -0.2634545,-0.1034 c -0.1489928,-0.07 -0.3132648,-0.202 -0.5244475,-0.3355 l -0.2169962,-0.1555 -0.2597988,0.1244 c -0.6286026,0.337 -1.0958236,0.5325 -1.3986699,0.6264 -0.1515166,0.047 -0.1414467,0.028 -0.2056504,0.042 -0.1655565,-0.157 -0.4943514,-0.4694 -0.6323192,-0.6559 l -0.02994,-0.01 c -0.1531344,-0.1766 -0.3861516,-0.59 -0.5011648,-0.7823 0.027212,-0.06 0.035363,-0.054 0.1170835,-0.1947 0.1608672,-0.2781 0.4417697,-0.6932 0.9171034,-1.2417 l 0.155925,-0.2168 -0.063829,-0.2438 c -0.062623,-0.1889 -0.1427862,-0.3613 -0.1798739,-0.5339 l -0.055639,-0.2739 -0.2714732,-0.073 c -0.6956301,-0.2072 -1.1530116,-0.4013 -1.4378541,-0.5494 -0.1524065,-0.079 -0.1411077,-0.082 -0.19496669,-0.1172 -0.007296,-0.2306 -0.008925,-0.7055 0.0245359,-0.9319 l 0.007816,-0.031 c 0.0192,-0.2404 0.121265,-0.6616 0.1759404,-0.8912 z"
       id="path4011"
       inkscape:connector-curvature="0" />
  </g>
</svg>
