<?xml version="1.0" encoding="UTF-8" standalone="no"?>
<!-- Created with Inkscape (http://www.inkscape.org/) -->

<svg
   xmlns:dc="http://purl.org/dc/elements/1.1/"
   xmlns:cc="http://creativecommons.org/ns#"
   xmlns:rdf="http://www.w3.org/1999/02/22-rdf-syntax-ns#"
   xmlns:svg="http://www.w3.org/2000/svg"
   xmlns="http://www.w3.org/2000/svg"
   xmlns:sodipodi="http://sodipodi.sourceforge.net/DTD/sodipodi-0.dtd"
   xmlns:inkscape="http://www.inkscape.org/namespaces/inkscape"
   width="16"
   height="16"
   id="svg2"
   version="1.1"
   inkscape:version="0.48.5 r10040">
  <defs
     id="defs4" />
  <sodipodi:namedview
     id="base"
     pagecolor="#ffffff"
     bordercolor="#666666"
     borderopacity="1.0"
     inkscape:pageopacity="0.0"
     inkscape:pageshadow="2"
     inkscape:zoom="41.6875"
     inkscape:cx="7.1903028"
     inkscape:cy="8.7676162"
     inkscape:document-units="px"
     inkscape:current-layer="layer1"
     showgrid="true"
     inkscape:snap-grids="true"
     inkscape:snap-global="false"
     inkscape:window-width="1496"
     inkscape:window-height="1028"
     inkscape:window-x="230"
     inkscape:window-y="80"
     inkscape:window-maximized="0">
    <inkscape:grid
       type="xygrid"
       id="grid2985"
       empspacing="4"
       visible="true"
       enabled="true"
       snapvisiblegridlinesonly="true" />
  </sodipodi:namedview>
  <metadata
     id="metadata7">
    <rdf:RDF>
      <cc:Work
         rdf:about="">
        <dc:format>image/svg+xml</dc:format>
        <dc:type
           rdf:resource="http://purl.org/dc/dcmitype/StillImage" />
        <dc:title></dc:title>
      </cc:Work>
    </rdf:RDF>
  </metadata>
  <g
     inkscape:label="Calque 1"
     inkscape:groupmode="layer"
     id="layer1"
     transform="translate(0,-1036.3622)">
    <path
       style="fill:#000000;fill-opacity:1;stroke:none"
       d="m 2,6 2,10 8,0 2,-10 z m 2,1.4797601 1,0 C 5,7.4797601 5.8119463,13.017841 6,14 6.1880537,14.982159 5.1627493,14.986667 5,14 4.6745015,12.026665 4,7.4797601 4,7.4797601 z m 3.53125,0 1,0 0,6.5202399 c 0,1 -1,1 -1,0 z m 3.46875,0 1,0 c 0,0 -0.674501,4.5469399 -1,6.5202399 -0.162749,0.9867 -1.1880537,0.9822 -1,0 0.188054,-0.9822 1,-6.5202399 1,-6.5202399 z"
       transform="translate(0,1036.3622)"
       id="path3887"
       inkscape:connector-curvature="0"
       sodipodi:nodetypes="cccccccsscccsscccssc" />
    <path
       style="fill:#000000;fill-opacity:1;stroke:none"
       d="M 8,0.03125 C 7.2835503,0.03125 6.5671005,0.21201259 6,0.5625 5.3659623,0.95435683 5,2 5,2 2,2 1.9375,4 1.9375,4 L 1,4 1,5 15,5 15,4 14,4 C 14,4 14,2 11,2 11,2 10.634038,0.95435683 10,0.5625 9.4328995,0.21201259 8.7164497,0.03125 8,0.03125 z m 0,0.9375 c 0.3460201,0 0.6920402,0.0599389 1,0.1875 C 9.435521,1.3366487 10,2 10,2 L 6,2 C 6,2 6.564479,1.3366487 7,1.15625 7.3079598,1.0286889 7.6539799,0.96875 8,0.96875 z m 3.146786,1.8125 c 0.253163,-5.625e-4 0.543626,0.25665 0.625,0.75 0.0234,0.1418666 0.107835,0.3029254 0.134464,0.46875 l -1,0 c -0.01692,-0.098431 -0.122346,-0.4054558 -0.134464,-0.46875 -0.09403,-0.4911 0.121837,-0.7494375 0.375,-0.75 z M 4.665714,2.8125 c 0.2531631,5.625e-4 0.469027,0.22765 0.375,0.71875 C 5.0286964,3.5940174 4.9229886,3.9026565 4.90625,4 l -1,0 C 3.9327412,3.8350472 4.0174219,3.6724554 4.040714,3.53125 4.1220885,3.0379 4.4125509,2.8119375 4.665714,2.8125 z M 8,2.8125 c 0.25,0 0.5,0.25 0.5,0.75 L 8.5,4 l -1,0 0,-0.4375 c 0,-0.5 0.25,-0.75 0.5,-0.75 z"
       transform="translate(0,1036.3622)"
       id="path3889"
       inkscape:connector-curvature="0"
       sodipodi:nodetypes="ssccccccccssssccssssccssssccssssccss" />
  </g>
</svg>
