<?xml version="1.0" encoding="UTF-8" standalone="no"?>
<!-- Created with Inkscape (http://www.inkscape.org/) -->

<svg
   xmlns:dc="http://purl.org/dc/elements/1.1/"
   xmlns:cc="http://creativecommons.org/ns#"
   xmlns:rdf="http://www.w3.org/1999/02/22-rdf-syntax-ns#"
   xmlns:svg="http://www.w3.org/2000/svg"
   xmlns="http://www.w3.org/2000/svg"
   xmlns:xlink="http://www.w3.org/1999/xlink"
   xmlns:sodipodi="http://sodipodi.sourceforge.net/DTD/sodipodi-0.dtd"
   xmlns:inkscape="http://www.inkscape.org/namespaces/inkscape"
   width="64"
   height="16"
   id="svg2"
   version="1.1"
   inkscape:version="0.48.5 r10040">
  <defs
     id="defs4">
    <linearGradient
       id="linearGradient3814">
      <stop
         style="stop-color:#59ff00;stop-opacity:1;"
         offset="0"
         id="stop3816" />
      <stop
         id="stop3824"
         offset="0.33000001"
         style="stop-color:#ffff00;stop-opacity:1;" />
      <stop
         id="stop3822"
         offset="0.67000002"
         style="stop-color:#ff7f00;stop-opacity:1;" />
      <stop
         style="stop-color:#ff0000;stop-opacity:1;"
         offset="1"
         id="stop3818" />
    </linearGradient>
    <linearGradient
       inkscape:collect="always"
       xlink:href="#linearGradient3814"
       id="linearGradient3826"
       x1="0"
       y1="8"
       x2="64"
       y2="8"
       gradientUnits="userSpaceOnUse" />
  </defs>
  <sodipodi:namedview
     id="base"
     pagecolor="#ffffff"
     bordercolor="#666666"
     borderopacity="1.0"
     inkscape:pageopacity="0.0"
     inkscape:pageshadow="2"
     inkscape:zoom="9.6"
     inkscape:cx="34.056051"
     inkscape:cy="8"
     inkscape:document-units="px"
     inkscape:current-layer="layer1"
     showgrid="true"
     inkscape:window-width="1319"
     inkscape:window-height="907"
     inkscape:window-x="543"
     inkscape:window-y="137"
     inkscape:window-maximized="0">
    <inkscape:grid
       type="xygrid"
       id="grid2985"
       empspacing="8"
       visible="true"
       enabled="true"
       snapvisiblegridlinesonly="true"
       empcolor="#bf0000"
       empopacity="0.25098039" />
    <inkscape:grid
       type="xygrid"
       id="grid2987"
       empspacing="5"
       visible="true"
       enabled="true"
       snapvisiblegridlinesonly="true" />
  </sodipodi:namedview>
  <metadata
     id="metadata7">
    <rdf:RDF>
      <cc:Work
         rdf:about="">
        <dc:format>image/svg+xml</dc:format>
        <dc:type
           rdf:resource="http://purl.org/dc/dcmitype/StillImage" />
        <dc:title></dc:title>
      </cc:Work>
    </rdf:RDF>
  </metadata>
  <g
     inkscape:label="Calque 1"
     inkscape:groupmode="layer"
     id="layer1"
     transform="translate(0,-1036.3622)">
    <path
       id="path3808"
       d="M 8,0.90625 5.75,5.5625 0.84375,6.25 4.375,9.90625 3.5,15.03125 7.90625,12.625 12.28125,15.09375 11.5,9.96875 15.0625,6.375 10.15625,5.59375 z m 16.0625,0 -2.21875,4.65625 -4.9375,0.6875 3.53125,3.65625 -0.875,5.125 4.40625,-2.40625 4.375,2.46875 L 27.5625,9.96875 31.125,6.375 26.21875,5.59375 z m 16,0 -2.21875,4.65625 -4.9375,0.6875 3.53125,3.65625 -0.875,5.125 4.40625,-2.40625 4.375,2.46875 L 43.5625,9.96875 47.125,6.375 42.21875,5.59375 z m 16,0 -2.21875,4.65625 -4.9375,0.6875 3.53125,3.65625 -0.875,5.125 4.40625,-2.40625 4.375,2.46875 L 59.5625,9.96875 63.125,6.375 58.21875,5.59375 z"
       style="fill:url(#linearGradient3826);fill-opacity:1;stroke:#000000;stroke-width:0.88900000000000001;stroke-linejoin:miter;stroke-miterlimit:4;stroke-opacity:1;stroke-dasharray:none"
       transform="translate(0,1036.3622)"
       inkscape:connector-curvature="0"
       sodipodi:nodetypes="cccccccccccccccccccccccccccccccccccccccccccc" />
    <path
       style="fill:#000000;fill-opacity:1;stroke:#000000;stroke-width:0.889;stroke-linejoin:miter;stroke-miterlimit:4;stroke-opacity:1;stroke-dasharray:none"
       d="M 24.0625,0.90625 23.96875,12.625 28.34375,15.09375 27.5625,9.96875 31.125,6.375 26.21875,5.59375 z m 16,0 -2.21875,4.65625 -4.9375,0.6875 3.53125,3.65625 -0.875,5.125 4.40625,-2.40625 4.375,2.46875 L 43.5625,9.96875 47.125,6.375 42.21875,5.59375 z m 16,0 -2.21875,4.65625 -4.9375,0.6875 3.53125,3.65625 -0.875,5.125 4.40625,-2.40625 4.375,2.46875 L 59.5625,9.96875 63.125,6.375 58.21875,5.59375 z"
       id="path3812"
       inkscape:connector-curvature="0"
       sodipodi:nodetypes="ccccccccccccccccccccccccccccc"
       transform="translate(0,1036.3622)" />
  </g>
</svg>
