<?xml version="1.0" encoding="UTF-8" standalone="no"?>
<!-- Created with Inkscape (http://www.inkscape.org/) -->

<svg
   xmlns:dc="http://purl.org/dc/elements/1.1/"
   xmlns:cc="http://creativecommons.org/ns#"
   xmlns:rdf="http://www.w3.org/1999/02/22-rdf-syntax-ns#"
   xmlns:svg="http://www.w3.org/2000/svg"
   xmlns="http://www.w3.org/2000/svg"
   xmlns:sodipodi="http://sodipodi.sourceforge.net/DTD/sodipodi-0.dtd"
   xmlns:inkscape="http://www.inkscape.org/namespaces/inkscape"
   width="16"
   height="16"
   id="svg2"
   version="1.1"
   inkscape:version="0.48.5 r10040">
  <defs
     id="defs4" />
  <sodipodi:namedview
     id="base"
     pagecolor="#ffffff"
     bordercolor="#666666"
     borderopacity="1.0"
     inkscape:pageopacity="0.0"
     inkscape:pageshadow="2"
     inkscape:zoom="25.5625"
     inkscape:cx="8.4130743"
     inkscape:cy="9.0526138"
     inkscape:document-units="px"
     inkscape:current-layer="layer1"
     showgrid="true"
     inkscape:snap-grids="true"
     inkscape:snap-global="true"
     inkscape:window-width="1496"
     inkscape:window-height="1028"
     inkscape:window-x="230"
     inkscape:window-y="80"
     inkscape:window-maximized="0">
    <inkscape:grid
       type="xygrid"
       id="grid2985"
       empspacing="4"
       visible="true"
       enabled="true"
       snapvisiblegridlinesonly="true" />
  </sodipodi:namedview>
  <metadata
     id="metadata7">
    <rdf:RDF>
      <cc:Work
         rdf:about="">
        <dc:format>image/svg+xml</dc:format>
        <dc:type
           rdf:resource="http://purl.org/dc/dcmitype/StillImage" />
        <dc:title></dc:title>
      </cc:Work>
    </rdf:RDF>
  </metadata>
  <g
     inkscape:label="Calque 1"
     inkscape:groupmode="layer"
     id="layer1"
     transform="translate(0,-1036.3622)">
    <path
       style="fill:#000000;fill-opacity:1;stroke:none"
       d="m 8.09375,0 c 0,0 -0.8801259,0.01375 -1.3125,0.09375 C 6.3436458,0.14475 5.5,0.4375 5.5,0.4375 c 0,0 -0.301891,0.6477 -0.34375,2.25 -0.1925119,0.099 -0.380418,0.22365 -0.5625,0.34375 -1.4425635,-0.6986 -2.1875,-0.75 -2.1875,-0.75 0,0 -0.6286628,0.6347 -0.875,1 -0.2737744,0.3452 -0.65625,1.125 -0.65625,1.125 0,0 0.2625334,0.69565 1.34375,1.84375 C 2.146848,6.4821 2.0426223,6.7009 2,6.9375 0.54467221,7.4551 0,7.90625 0,7.90625 c 0,0 0.00903703,0.8801 0.09375,1.3125 C 0.14480804,9.65645 0.4375,10.5 0.4375,10.5 c 0,0 0.6425986,0.29415 2.1875,0.34375 0.1089905,0.2044 0.2416189,0.40135 0.375,0.59375 -0.6837005,1.4212 -0.71875,2.15625 -0.71875,2.15625 0,0 0.6346813,0.6286 1,0.875 0.3452557,0.2737 1.125,0.65625 1.125,0.65625 0,0 0.6796828,-0.24185 1.84375,-1.34375 0.2155531,0.064 0.4370671,0.11745 0.65625,0.15625 0.5279871,1.5134 1,2.0625 1,2.0625 0,0 0.8801262,-0.01375 1.3125,-0.09375 C 9.6563699,15.85425 10.5,15.5625 10.5,15.5625 c 0,0 0.301879,-0.6476 0.34375,-2.25 5.34e-4,-0.021 -4e-4,-0.0425 0,-0.0625 0.17484,-0.097 0.365711,-0.16605 0.53125,-0.28125 0.01223,0.011 0.01823,-0.007 0.03125,0 1.442564,0.6986 2.1875,0.75 2.1875,0.75 0,0 0.628662,-0.6347 0.875,-1 0.273743,-0.3452 0.65625,-1.125 0.65625,-1.125 0,0 -0.241843,-0.67975 -1.34375,-1.84375 C 13.75136,9.718 13.71439,9.7155 13.6875,9.6875 13.74003,9.5016 13.809791,9.3136 13.84375,9.125 13.8861,9.112 13.889813,9.11075 13.9375,9.09375 c 1.513432,-0.528 2.0625,-1 2.0625,-1 0,0 -0.009,-0.8801 -0.09375,-1.3125 C 15.85517,6.34315 15.5625,5.5 15.5625,5.5 c 0,0 -0.647723,-0.30195 -2.25,-0.34375 -0.06394,0 -0.07132,0.001 -0.125,0 -0.0818,-0.1476 -0.15529,-0.2962 -0.25,-0.4375 0.02406,-0.045 0.0051,-0.0717 0.03125,-0.125 0.698645,-1.4426 0.75,-2.1875 0.75,-2.1875 0,0 -0.634682,-0.6286 -1,-0.875 -0.345636,-0.2741 -1.125,-0.65625 -1.125,-0.65625 0,0 -0.679688,0.24185 -1.84375,1.34375 C 9.718417,2.24875 9.715275,2.2845 9.6875,2.3125 9.5073572,2.2565 9.3079351,2.19455 9.125,2.15625 9.110742,2.11325 9.111018,2.1122 9.09375,2.0625 8.5657632,0.5491 8.09375,0 8.09375,0 z M 6,4 12,8 6,12 z"
       transform="translate(0,1036.3622)"
       id="path3957"
       inkscape:connector-curvature="0"
       sodipodi:nodetypes="ccccccccccccccccccccccccccccccccccccccccccccccccccccc" />
  </g>
</svg>
