<?xml version="1.0" encoding="UTF-8" standalone="no"?>
<!-- Created with Inkscape (http://www.inkscape.org/) -->

<svg
   xmlns:dc="http://purl.org/dc/elements/1.1/"
   xmlns:cc="http://creativecommons.org/ns#"
   xmlns:rdf="http://www.w3.org/1999/02/22-rdf-syntax-ns#"
   xmlns:svg="http://www.w3.org/2000/svg"
   xmlns="http://www.w3.org/2000/svg"
   xmlns:xlink="http://www.w3.org/1999/xlink"
   xmlns:sodipodi="http://sodipodi.sourceforge.net/DTD/sodipodi-0.dtd"
   xmlns:inkscape="http://www.inkscape.org/namespaces/inkscape"
   width="44"
   height="44"
   id="svg2"
   version="1.1"
   inkscape:version="0.48.5 r10040"
   sodipodi:docname="logo_ocp.svg">
  <defs
     id="defs4">
    <linearGradient
       id="linearGradient4776">
      <stop
         style="stop-color:#bad0ff;stop-opacity:1;"
         offset="0"
         id="stop4778" />
      <stop
         style="stop-color:#5581ff;stop-opacity:1;"
         offset="1"
         id="stop4780" />
    </linearGradient>
    <filter
       inkscape:collect="always"
       id="filter4270">
      <feGaussianBlur
         inkscape:collect="always"
         stdDeviation="0.59672459"
         id="feGaussianBlur4272" />
    </filter>
    <linearGradient
       inkscape:collect="always"
       xlink:href="#linearGradient4776"
       id="linearGradient4782"
       x1="17.150364"
       y1="1011.3535"
       x2="17.150364"
       y2="1050.1187"
       gradientUnits="userSpaceOnUse" />
  </defs>
  <sodipodi:namedview
     id="base"
     pagecolor="#ffffff"
     bordercolor="#666666"
     borderopacity="1.0"
     inkscape:pageopacity="0.0"
     inkscape:pageshadow="2"
     inkscape:zoom="14.460334"
     inkscape:cx="20"
     inkscape:cy="20"
     inkscape:document-units="px"
     inkscape:current-layer="layer1"
     showgrid="true"
     inkscape:snap-grids="true"
     inkscape:snap-global="false"
     inkscape:window-width="1496"
     inkscape:window-height="1028"
     inkscape:window-x="230"
     inkscape:window-y="80"
     inkscape:window-maximized="0">
    <inkscape:grid
       type="xygrid"
       id="grid2985"
       empspacing="4"
       visible="true"
       enabled="true"
       snapvisiblegridlinesonly="true" />
  </sodipodi:namedview>
  <metadata
     id="metadata7">
    <rdf:RDF>
      <cc:Work
         rdf:about="">
        <dc:format>image/svg+xml</dc:format>
        <dc:type
           rdf:resource="http://purl.org/dc/dcmitype/StillImage" />
        <dc:title />
      </cc:Work>
    </rdf:RDF>
  </metadata>
  <g
     inkscape:label="Calque 1"
     inkscape:groupmode="layer"
     id="layer1"
     transform="translate(0,-1008.3622)">
    <path
       inkscape:connector-curvature="0"
       id="path4256"
       d="m 41.282105,1010.8287 c -0.675707,0 -1.15625,0.375 -1.15625,0.375 l 0,0.2812 c 0.40824,0.062 0.65625,0.5395 0.65625,1.4063 0,0 0.02815,5.5364 0,9.375 l 0,0.25 1.40625,0 c -0.02815,-0.1703 -0.04842,-0.3932 -0.0625,-0.6563 -0.07039,-1.718 -0.126695,-6.2869 0,-8.5312 0.09854,-1.6717 0.113502,-2.5 -0.84375,-2.5 z m -34.4999999,1.3125 c -2.5339031,0 -4.40625,2.2335 -4.40625,5.4375 0,3.3587 1.8340951,5.125 3.59375,5.125 2.7872934,0 4.5061909,-2.3887 4.5624999,-5.4688 0,-3.3432 -1.7088002,-5.0937 -3.7499999,-5.0937 z m 9.7187499,0 c -2.70283,0 -4.5,2.2805 -4.5,5.5 0,2.8789 1.415979,5.0625 4.0625,5.0625 1.759655,0 3.21875,-0.8722 3.21875,-2.2188 0,-0.093 -0.02027,-0.2509 -0.0625,-0.3437 -0.506781,1.0215 -1.71477,1.5 -2.53125,1.5 -2.125663,0 -3.15625,-2.273 -3.15625,-4.6875 0,-2.0122 0.838591,-3.875 2.78125,-3.875 1.281029,0 1.8125,1.16 1.8125,1.5625 l 0.21875,0.1875 c 0.492703,-0.2322 0.90625,-1.0967 0.90625,-1.4063 -0.309699,-0.6965 -1.539357,-1.2812 -2.75,-1.2812 z m -10.2187499,0.9687 c 1.4499557,0 2.71875,2.1024 2.71875,4.6563 0,2.2133 -1.023585,4 -2.375,4 -1.5344191,0 -2.71875,-2.2884 -2.71875,-4.6875 0,-2.1979 1.0095078,-3.9688 2.375,-3.9688 z m 16.7187499,1.5625 c -1.083947,0 -2.25,0.4776 -2.25,1.4063 0,0.4488 0.304319,0.6875 0.65625,0.6875 0.168927,0 0.359228,-0.048 0.5,-0.1563 0,-0.046 -0.03125,-0.079 -0.03125,-0.125 0,-0.5572 0.43212,-1.125 1.09375,-1.125 1.140256,0 1.3125,1.0273 1.3125,2.25 0,0.2941 -0.01717,0.628 -0.03125,0.9375 -0.351931,-0.093 -0.710569,-0.1562 -1.0625,-0.1562 -1.520342,0 -2.84375,0.8111 -2.84375,2.3125 0,0.9906 0.614239,2 1.9375,2 0.746094,0 1.763782,-0.5559 2.03125,-1.5 0,0.2321 0.119325,1.5 1.0625,1.5 0.40824,0 1.045032,-0.1893 1.3125,-0.375 l 0,-0.2813 c -0.04223,0 -0.701282,0.026 -0.96875,-0.5625 -0.126695,-0.2941 -0.21875,-1.0678 -0.21875,-1.625 0,-2.3526 0.03125,-2.6749 0.03125,-3 0,-1.5787 -0.982754,-2.1875 -2.53125,-2.1875 z m 9.15625,0 c -1.379569,0 -2.296433,0.9761 -2.71875,1.75 0.04223,-0.2941 0.09375,-0.4375 0.09375,-0.4375 0.04223,-0.712 -0.04304,-1.2812 -0.71875,-1.2812 -0.577167,0 -0.99661,0.2047 -1.25,0.375 l 0,0.2812 c 0,0 0.746904,0.064 0.71875,1.875 l -0.0625,5.2188 0,0.062 1.40625,0 c -0.05631,-0.2941 -0.125,-0.6919 -0.125,-1.1563 -0.02815,-1.6407 -0.03125,-3.8029 -0.03125,-4.4375 0.309699,-0.4024 0.972362,-1.0312 2,-1.0312 0.900943,0.015 1.139077,0.6703 1.125,2.1562 l -0.03125,3.7188 c -0.01408,0.2786 0.0031,0.5333 0.03125,0.75 l 1.375,0 c -0.239313,-1.1764 -0.139077,-4.8059 -0.125,-5.75 0.323777,-0.3715 0.931825,-0.875 1.875,-0.875 0.900943,0.015 1.170327,0.6703 1.15625,2.1562 l -0.03125,3.7188 c -0.01408,0.2786 0.0031,0.5333 0.03125,0.75 l 1.375,0 c -0.25339,-1.3157 -0.128096,-5.3812 -0.15625,-6.0313 -0.02815,-0.9441 -0.702093,-1.8125 -1.6875,-1.8125 -1.323261,0 -2.126106,0.8975 -2.5625,1.625 -0.126695,-0.8668 -0.786557,-1.625 -1.6875,-1.625 z m -7.90625,4.25 c 0,0 -0.03125,1.6125 -0.03125,1.9375 -0.140772,0.3251 -0.796138,0.7188 -1.5,0.7188 -0.774248,0 -1.09375,-0.5988 -1.09375,-1.125 0,-1.5014 2.610923,-1.5313 2.625,-1.5313 z m -16.3437499,7.875 c -3.0612225,0 -5.53125,2.47 -5.53125,5.5313 l 0,13 c 0,3.0612 2.4700275,5.5312 5.53125,5.5312 l 28.9999999,0 c 3.061223,0 5.53125,-2.47 5.53125,-5.5312 l 0,-13 c 0,-3.0613 -2.470027,-5.5313 -5.53125,-5.5313 l -28.9999999,0 z m 25.6249999,5.4063 c 2.717427,0 5,2.1082 5,6.1562 -0.07496,3.7294 -2.383057,6.625 -6.09375,6.625 -2.342609,0 -4.78125,-2.1207 -4.78125,-6.1875 0,-3.8793 2.501643,-6.5937 5.875,-6.5937 z m -23.21875,0.094 0.1875,0 c 1.874087,0 4.15625,0.789 4.15625,3.8438 0,2.3051 -2.026205,3.9062 -4.5,3.9062 -0.3373356,0 -0.6626642,-0.019 -0.9999999,-0.094 0.037482,1.8928 0.1125365,4.2002 0.1875,4.7812 l -2.0625,0 0,-0.2812 c 0,-1.6305 0.049991,-3.2445 0.03125,-4.6875 0,-3.1672 0.1746715,-6.1879 -0.5,-7.0313 l 0.125,-0.3125 3.3749999,-0.125 z m 10.5625,0.031 c 1.874087,0 4.125,0.7577 4.125,3.8125 0,1.6679 -1.025748,2.9815 -2.5625,3.5625 0.449781,0.2249 3.787756,4.6377 4.3125,5.0312 l -2.53125,0 c -0.674671,-1.3681 -2.519334,-3.3381 -3.71875,-4.6875 -0.337336,0 -0.631414,-0.019 -0.96875,-0.094 0.03748,1.8928 0.08129,4.2002 0.15625,4.7812 l -2.03125,0 0,-0.2812 c 0,-1.6305 0.01874,-3.2445 0,-4.6875 0,-3.1672 0.174671,-6.1879 -0.5,-7.0313 l 0.125,-0.3125 c 3.448321,-0.094 3.518787,-0.094 3.59375,-0.094 z m -10.65625,1.0312 -0.9999999,0.031 c -0.056223,0.6746 -0.0625,3.3133 -0.0625,5 l 0,0.5625 c 0.2623722,0.1311 0.587792,0.1562 1.1874999,0.1562 1.443047,0 2.65625,-0.9695 2.65625,-2.5625 0,-2.3801 -1.600575,-3.225 -2.78125,-3.1875 z m 10.375,0 -1,0.031 c -0.05622,0.6746 -0.0625,3.3133 -0.0625,5 l 0,0.5625 c 0.262372,0.1311 0.556542,0.1562 1.15625,0.1562 1.443047,0 2.65625,-0.9695 2.65625,-2.5625 0,-2.4176 -1.569325,-3.225 -2.75,-3.1875 z m 12.28125,0 c -1.817865,0 -3.1875,2.1826 -3.1875,4.8438 0,2.9048 1.613495,5.6562 3.65625,5.6562 1.799124,0 3.125,-2.195 3.125,-4.875 0,-3.0922 -1.66344,-5.625 -3.59375,-5.625 z"
       style="font-size:59.04413604999998455px;font-style:normal;font-weight:normal;line-height:125%;letter-spacing:0px;word-spacing:0px;fill:#000000;fill-opacity:0.64444447;stroke:none;filter:url(#filter4270);font-family:Sans" />
    <path
       style="font-size:59.04413604999998455px;font-style:normal;font-weight:normal;line-height:125%;letter-spacing:0px;word-spacing:0px;fill:url(#linearGradient4782);fill-opacity:1;stroke:none;font-family:Sans"
       d="m 40.452249,1009.7222 c -0.675707,0 -1.15625,0.375 -1.15625,0.375 l 0,0.2812 c 0.40824,0.062 0.65625,0.5395 0.65625,1.4063 0,0 0.02815,5.5364 0,9.375 l 0,0.25 1.40625,0 c -0.02815,-0.1703 -0.04842,-0.3932 -0.0625,-0.6563 -0.07039,-1.718 -0.126695,-6.2869 0,-8.5312 0.09854,-1.6717 0.113502,-2.5 -0.84375,-2.5 z m -34.5000003,1.3125 c -2.5339031,0 -4.40625,2.2335 -4.40625,5.4375 0,3.3587 1.8340951,5.125 3.59375,5.125 2.7872934,0 4.506191,-2.3887 4.5625,-5.4688 0,-3.3432 -1.7088003,-5.0937 -3.75,-5.0937 z m 9.7187503,0 c -2.70283,0 -4.5,2.2805 -4.5,5.5 0,2.8789 1.415979,5.0625 4.0625,5.0625 1.759655,0 3.21875,-0.8722 3.21875,-2.2188 0,-0.093 -0.02027,-0.2509 -0.0625,-0.3437 -0.506781,1.0215 -1.71477,1.5 -2.53125,1.5 -2.125663,0 -3.15625,-2.273 -3.15625,-4.6875 0,-2.0122 0.838591,-3.875 2.78125,-3.875 1.281029,0 1.8125,1.16 1.8125,1.5625 l 0.21875,0.1875 c 0.492703,-0.2322 0.90625,-1.0967 0.90625,-1.4063 -0.309699,-0.6965 -1.539357,-1.2812 -2.75,-1.2812 z m -10.2187503,0.9687 c 1.4499557,0 2.71875,2.1024 2.71875,4.6563 0,2.2133 -1.023585,4 -2.375,4 -1.5344191,0 -2.71875,-2.2884 -2.71875,-4.6875 0,-2.1979 1.0095078,-3.9688 2.375,-3.9688 z m 16.7187503,1.5625 c -1.083947,0 -2.25,0.4776 -2.25,1.4063 0,0.4488 0.304319,0.6875 0.65625,0.6875 0.168927,0 0.359228,-0.048 0.5,-0.1563 0,-0.046 -0.03125,-0.079 -0.03125,-0.125 0,-0.5572 0.43212,-1.125 1.09375,-1.125 1.140256,0 1.3125,1.0273 1.3125,2.25 0,0.2941 -0.01717,0.628 -0.03125,0.9375 -0.351931,-0.093 -0.710569,-0.1562 -1.0625,-0.1562 -1.520342,0 -2.84375,0.8111 -2.84375,2.3125 0,0.9906 0.614239,2 1.9375,2 0.746094,0 1.763782,-0.5559 2.03125,-1.5 0,0.2321 0.119325,1.5 1.0625,1.5 0.40824,0 1.045032,-0.1893 1.3125,-0.375 l 0,-0.2813 c -0.04223,0 -0.701282,0.026 -0.96875,-0.5625 -0.126695,-0.2941 -0.21875,-1.0678 -0.21875,-1.625 0,-2.3526 0.03125,-2.6749 0.03125,-3 0,-1.5787 -0.982754,-2.1875 -2.53125,-2.1875 z m 9.15625,0 c -1.379569,0 -2.296433,0.9761 -2.71875,1.75 0.04223,-0.2941 0.09375,-0.4375 0.09375,-0.4375 0.04223,-0.712 -0.04304,-1.2812 -0.71875,-1.2812 -0.577167,0 -0.99661,0.2047 -1.25,0.375 l 0,0.2812 c 0,0 0.746904,0.064 0.71875,1.875 l -0.0625,5.2188 0,0.062 1.40625,0 c -0.05631,-0.2941 -0.125,-0.6919 -0.125,-1.1563 -0.02815,-1.6407 -0.03125,-3.8029 -0.03125,-4.4375 0.309699,-0.4024 0.972362,-1.0312 2,-1.0312 0.900943,0.015 1.139077,0.6703 1.125,2.1562 l -0.03125,3.7188 c -0.01408,0.2786 0.0031,0.5333 0.03125,0.75 l 1.375,0 c -0.239313,-1.1764 -0.139077,-4.8059 -0.125,-5.75 0.323777,-0.3715 0.931825,-0.875 1.875,-0.875 0.900943,0.015 1.170327,0.6703 1.15625,2.1562 l -0.03125,3.7188 c -0.01408,0.2786 0.0031,0.5333 0.03125,0.75 l 1.375,0 c -0.25339,-1.3157 -0.128096,-5.3812 -0.15625,-6.0313 -0.02815,-0.9441 -0.702093,-1.8125 -1.6875,-1.8125 -1.323261,0 -2.126106,0.8975 -2.5625,1.625 -0.126695,-0.8668 -0.786557,-1.625 -1.6875,-1.625 z m -7.90625,4.25 c 0,0 -0.03125,1.6125 -0.03125,1.9375 -0.140772,0.3251 -0.796138,0.7188 -1.5,0.7188 -0.774248,0 -1.09375,-0.5988 -1.09375,-1.125 0,-1.5014 2.610923,-1.5313 2.625,-1.5313 z m -16.3437503,7.875 c -3.0612225,0 -5.53125,2.47 -5.53125,5.5313 l 0,13 c 0,3.0612 2.4700275,5.5312 5.53125,5.5312 l 29.0000003,0 c 3.061223,0 5.53125,-2.47 5.53125,-5.5312 l 0,-13 c 0,-3.0613 -2.470027,-5.5313 -5.53125,-5.5313 l -29.0000003,0 z m 25.6250003,5.4063 c 2.717427,0 5,2.1082 5,6.1562 -0.07496,3.7294 -2.383057,6.625 -6.09375,6.625 -2.342609,0 -4.78125,-2.1207 -4.78125,-6.1875 0,-3.8793 2.501643,-6.5937 5.875,-6.5937 z m -23.2187503,0.094 0.1875,0 c 1.8740873,0 4.1562503,0.789 4.1562503,3.8438 0,2.3051 -2.026205,3.9062 -4.5000003,3.9062 -0.3373357,0 -0.6626643,-0.019 -1,-0.094 0.037482,1.8928 0.1125365,4.2002 0.1875,4.7812 l -2.0625,0 0,-0.2812 c 0,-1.6305 0.049991,-3.2445 0.03125,-4.6875 0,-3.1672 0.1746715,-6.1879 -0.5,-7.0313 l 0.125,-0.3125 3.375,-0.125 z m 10.5625003,0.031 c 1.874087,0 4.125,0.7577 4.125,3.8125 0,1.6679 -1.025748,2.9815 -2.5625,3.5625 0.449781,0.2249 3.787756,4.6377 4.3125,5.0312 l -2.53125,0 c -0.674671,-1.3681 -2.519334,-3.3381 -3.71875,-4.6875 -0.337336,0 -0.631414,-0.019 -0.96875,-0.094 0.03748,1.8928 0.08129,4.2002 0.15625,4.7812 l -2.03125,0 0,-0.2812 c 0,-1.6305 0.01874,-3.2445 0,-4.6875 0,-3.1672 0.174671,-6.1879 -0.5,-7.0313 l 0.125,-0.3125 c 3.448321,-0.094 3.518787,-0.094 3.59375,-0.094 z m -10.6562503,1.0312 -1,0.031 c -0.056223,0.6746 -0.0625,3.3133 -0.0625,5 l 0,0.5625 c 0.2623722,0.1311 0.587792,0.1562 1.1875,0.1562 1.4430473,0 2.6562503,-0.9695 2.6562503,-2.5625 0,-2.3801 -1.600575,-3.225 -2.7812503,-3.1875 z m 10.3750003,0 -1,0.031 c -0.05622,0.6746 -0.0625,3.3133 -0.0625,5 l 0,0.5625 c 0.262372,0.1311 0.556542,0.1562 1.15625,0.1562 1.443047,0 2.65625,-0.9695 2.65625,-2.5625 0,-2.4176 -1.569325,-3.225 -2.75,-3.1875 z m 12.28125,0 c -1.817865,0 -3.1875,2.1826 -3.1875,4.8438 0,2.9048 1.613495,5.6562 3.65625,5.6562 1.799124,0 3.125,-2.195 3.125,-4.875 0,-3.0922 -1.66344,-5.625 -3.59375,-5.625 z"
       id="text4243"
       inkscape:connector-curvature="0" />
  </g>
</svg>
